HIERARCHY
ROOT Hips
{
  OFFSET -125.086 92.215 135.881
  CHANNELS 6 Xposition Yposition Zposition Zrotation Xrotation Yrotation
  JOINT LeftUpLeg
  {
    OFFSET 8.64259 1.95398 -2.38835
    CHANNELS 3 Zrotation Xrotation Yrotation
    JOINT LeftLeg
    {
      OFFSET 43.7702 0 0
      CHANNELS 3 Zrotation Xrotation Yrotation
      JOINT LeftFoot
      {
        OFFSET 40.6238 0 0
        CHANNELS 3 Zrotation Xrotation Yrotation
        JOINT LeftToeBase
        {
          OFFSET 12.7242 0 0
          CHANNELS 3 Zrotation Xrotation Yrotation
          End Site
          {
            OFFSET 0 0 0
          }
        }
      }
    }
  }
  JOINT RightUpLeg
  {
    OFFSET -8.2249 1.95398 -2.59336
    CHANNELS 3 Zrotation Xrotation Yrotation
    JOINT RightLeg
    {
      OFFSET 43.5653 0 0
      CHANNELS 3 Zrotation Xrotation Yrotation
      JOINT RightFoot
      {
        OFFSET 40.6238 0 0
        CHANNELS 3 Zrotation Xrotation Yrotation
        JOINT RightToeBase
        {
          OFFSET 12.7242 0 0
          CHANNELS 3 Zrotation Xrotation Yrotation
          End Site
          {
            OFFSET 0 0 0
          }
        }
      }
    }
  }
  JOINT Spine
  {
    OFFSET 0.165834 0.87714 6.61349
    CHANNELS 3 Zrotation Xrotation Yrotation
    JOINT Spine1
    {
      OFFSET 7.38963 1.71661e-005 0
      CHANNELS 3 Zrotation Xrotation Yrotation
      JOINT Spine2
      {
        OFFSET 11.9445 1.14441e-005 0
        CHANNELS 3 Zrotation Xrotation Yrotation
        JOINT Spine3
        {
          OFFSET 14.7254 4.19617e-005 0
          CHANNELS 3 Zrotation Xrotation Yrotation
          JOINT Spine4
          {
            OFFSET 10.9679 0 0
            CHANNELS 3 Zrotation Xrotation Yrotation
            JOINT RightShoulder
            {
              OFFSET 2.46616 -1.6653 3.69651
              CHANNELS 3 Zrotation Xrotation Yrotation
              JOINT RightArm
              {
                OFFSET 13.0012 0 0
                CHANNELS 3 Zrotation Xrotation Yrotation
                JOINT RightForeArm
                {
                  OFFSET 28.7848 1.52588e-005 0
                  CHANNELS 3 Zrotation Xrotation Yrotation
                  JOINT RightHand
                  {
                    OFFSET 26.5688 1.52588e-005 0
                    CHANNELS 3 Zrotation Xrotation Yrotation
                    End Site
                    {
                      OFFSET 0 0 0
                    }
                  }
                }
              }
            }
            JOINT LeftShoulder
            {
              OFFSET 2.38034 -1.29275 -3.7523
              CHANNELS 3 Zrotation Xrotation Yrotation
              JOINT LeftArm
              {
                OFFSET 16.3182 6.10352e-005 0
                CHANNELS 3 Zrotation Xrotation Yrotation
                JOINT LeftForeArm
                {
                  OFFSET 27.0901 0 0
                  CHANNELS 3 Zrotation Xrotation Yrotation
                  JOINT LeftHand
                  {
                    OFFSET 24.5451 1.52588e-005 0
                    CHANNELS 3 Zrotation Xrotation Yrotation
                    End Site
                    {
                      OFFSET 0 0 0
                    }
                  }
                }
              }
            }
            JOINT Neck
            {
              OFFSET 5.0226 -0.0266342 0
              CHANNELS 3 Zrotation Xrotation Yrotation
              JOINT Head
              {
                OFFSET 6.69363 2.86102e-005 0
                CHANNELS 3 Zrotation Xrotation Yrotation
                End Site
                {
                  OFFSET 0 0 0
                }
              }
            }
          }
        }
      }
    }
  }
}
MOTION
Frames:	18
Frame Time:	0.0416667
-318.465 83.5348 330.254 99.9429 21.7701 75.4738 -166.982 20.6743 87.9123 -37.6493 9.58808 -8.59086 64.3269 -2.57436 12.2842 44.1977 -1.31345 0.00705187 -176.095 -18.2077 72.1253 -46.5408 -22.8347 -14.2221 58.7568 -5.73681 24.6504 87.31 6.75483 36.6805 3.91396 7.51523 -89.9934 11.8971 7.78626 -0.822529 0.249122 7.74246 -1.16648 -22.4702 7.67126 1.5699 -2.45759 7.67126 1.56989 121.373 -40.0562 -48.6601 28.1682 -14.2999 3.83258 -6.46342 -17.2273 -43.7633 -5.57546 -0.499969 5.79438 -62.2131 -48.308 120.923 -31.6059 -24.4 -2.23087 2.86167 74.9142 0.0168312 -17.2845 -0.183493 -3.65957 -10.9864 4.52854 19.0041 -17.4139 12.0647 -58.5193 
-312.513 86.3435 322.94 100.724 23.2594 74.5713 -174.783 13.5341 82.073 -34.7865 -39.1937 -1.94622 53.0983 -16.0296 -10.1194 3.9268 2.50597 -22.4317 -171.507 -4.85789 75.9754 -64.8717 -15.6008 -13.3857 64.9076 -4.22105 22.9693 79.4177 5.23123 36.6264 3.49539 7.76422 -89.853 11.3767 7.02387 -0.414082 -0.275402 6.99877 -0.724351 -22.9577 6.82201 1.72619 -2.94503 6.82197 1.72618 117.582 -38.6104 -54.5509 32.5786 -9.02495 7.13895 -10.0263 -24.4011 -40.2702 -4.49932 -0.506485 9.10832 -63.7176 -50.5554 118.091 -38.1133 -20.7495 -12.1333 5.92322 73.5854 0.0316607 -14.9331 0.353506 -8.32332 -4.3936 4.30024 20.8941 -21.9967 12.9837 -58.6749 
-306.927 89.7213 316.295 102.092 25.4898 75.4251 -176.44 2.38486 80.4034 -25.6859 -74.043 0.61723 30.8125 -18.9701 -38.2655 -39.3293 3.37474 -9.77042 -169.449 7.20981 80.8085 -73.456 -10.7613 -11.2755 59.9771 -1.33876 17.714 72.7303 3.21809 36.1545 3.00286 8.01334 -90.0428 10.8787 5.95904 -0.643463 -0.778867 5.92491 -0.906026 -23.4217 5.87598 1.18362 -3.40903 5.87598 1.18363 114.865 -37.0771 -58.8277 36.5943 -3.64945 6.56578 -8.93559 -29.7732 -31.2514 -5.8816 -0.459549 4.16356 -64.5061 -51.7941 116.638 -43.1712 -12.4068 -22.1312 5.78569 71.2016 0.0793123 -10.4661 0.36858 -10.5675 0.149324 4.19131 22.4568 -26.1197 13.1737 -55.3996 
-301.696 91.1267 310.499 103.331 27.6225 77.3698 -173.351 -11.6282 83.8027 -8.45351 4.60088 -3.60473 62.3728 2.91732 13.2765 38.9149 0.205949 -8.05549 -171.132 16.7212 87.2036 -69.2638 -12.361 -9.47544 53.6515 1.34842 12.333 51.2328 -1.43545 8.06958 2.57687 8.1186 -90.347 10.6695 4.97226 -1.14395 -0.992644 4.91707 -1.36218 -23.6044 5.08559 0.40721 -3.59173 5.0856 0.407209 113.004 -36.2392 -61.9558 38.4825 -0.726959 7.49851 -8.72139 -34.4534 -26.5505 -7.56695 -0.449785 1.89822 -64.8721 -51.1672 116.239 -43.6278 -1.29898 -29.2342 0.917982 61.4487 0.449687 1.75943 -0.405899 -12.4352 3.43876 3.88473 22.1352 -29.9609 12.4095 -49.0682 
-296.797 91.0587 305.279 104.366 28.8751 76.8286 -173.515 -20.2611 84.1804 -2.37584 8.10259 -3.92251 61.6222 5.101 14.238 39.9881 -0.946887 -0.54347 -174.865 20.2504 89.077 -51.2876 -16.3643 -7.72133 57.6265 0.442821 13.3025 48.2476 -2.88914 1.82517 2.28519 8.20461 -90.3459 10.4909 4.39346 -1.07757 -1.17324 4.34177 -1.27022 -23.7682 4.51378 0.29537 -3.75554 4.5138 0.295367 111.884 -38.3944 -64.5608 37.3281 1.25134 9.62502 -7.91243 -34.3894 -24.7809 -9.85072 -0.685964 3.0523 -65.3919 -51.7078 115.357 -39.7897 5.56402 -34.7256 5.57891 56.0582 -11.408 3.92837 -0.603814 -13.6753 3.66037 3.06381 20.5611 -28.8038 9.64332 -43.0837 
-291.751 90.688 300.023 104.366 30.5138 73.9477 -175.81 -24.4913 80.677 -2.34457 8.82883 -4.48809 61.9685 6.18335 15.2745 44.7386 -1.34277 0.491902 -178.538 20.357 87.4477 -25.9904 -19.1698 -5.93341 56.3807 2.09214 15.3092 36.8939 -1.30284 -1.78608 1.97267 8.18172 -89.9609 10.5223 3.94732 -0.273145 -1.14269 3.93145 -0.446878 -23.7246 3.84663 0.927631 -3.71195 3.84662 0.92763 111.917 -43.5129 -65.6825 33.6355 2.13897 9.86413 -4.90994 -29.4758 -21.3511 -8.82036 -0.402742 0.157259 -66.6336 -52.4068 113.398 -37.3303 7.27322 -38.9705 11.4322 58.3865 -20.4414 3.35299 -0.322308 -9.066 -0.00505001 1.7808 17.8334 -21.0115 5.26747 -37.6103 
-286.012 89.9691 294.618 105.999 32.4916 69.3755 -178.021 -29.1655 77.4578 -4.69397 11.6243 -4.60454 59.5677 5.25666 12.452 51.3316 -1.52819 4.57293 -179.579 21.4358 83.9173 -21.8402 -12.632 -5.67902 60.545 1.99014 22.1278 34.0845 -0.16129 -11.763 1.6592 8.25555 -89.5579 10.3551 3.5078 0.572461 -1.3112 3.52958 0.417335 -23.8778 3.17344 1.60122 -3.86512 3.17344 1.60122 112.806 -49.182 -65.4582 29.0567 3.20388 8.0066 -3.49915 -29.51 -18.3969 -9.50036 -0.399142 -0.337239 -69.6245 -52.6842 108.974 -37.7318 6.42207 -39.6365 10.9015 60.0549 -18.4848 2.21118 -0.364508 -11.2458 -5.68793 0.447398 13.6262 -10.8264 1.16967 -29.8579 
-278.786 89.2001 288.173 109.084 37.7442 67.4955 -176.235 -28.707 81.3129 -18.6835 17.7954 -0.989486 55.5707 2.01042 3.95657 64.3345 -1.56792 7.46856 -179.975 19.268 83.6667 -28.6248 -16.0263 -6.52365 51.406 4.2167 15.0823 32.6037 -0.171083 -5.44048 1.1218 8.25931 -89.6551 10.3493 2.39275 0.476472 -1.3195 2.41139 0.370636 -23.8685 2.13887 1.17386 -3.85581 2.13889 1.17385 115.45 -52.9973 -62.3001 26.0021 3.22526 4.63575 -1.60653 -26.6197 -16.7825 -14.9969 -0.941361 2.089 -74.369 -50.7576 102.102 -41.6814 3.43836 -35.7616 6.53654 67.4988 -9.03922 2.34397 -0.58099 -16.2993 -6.84233 0.162737 6.59571 -7.70962 0.250201 -16.9705 
-271.97 89.3034 281.454 111.319 44.6152 69.373 -173.787 -15.2652 88.3628 -45.3554 12.6799 2.69716 42.0257 -4.50305 -5.11925 64.1378 -2.62422 2.0546 177.143 17.6682 85.7142 -36.8179 -13.6004 -3.55767 55.7306 2.70642 9.64057 31.6083 -0.398637 -0.592511 0.59087 8.18755 -90.2077 10.5014 1.08167 -0.508981 -1.16923 1.05824 -0.556104 -23.7079 1.18464 -0.160323 -3.69522 1.18464 -0.160317 115.375 -54.1799 -62.6854 25.396 4.78595 -1.2592 0.415318 -25.3407 -11.7611 -17.385 -1.16436 2.61361 -76.6949 -48.7193 98.643 -48.81 -2.26383 -32.3112 5.28426 76.205 0.0336945 -0.896959 -0.200276 -12.8792 -2.94036 0.427096 -0.71378 -12.7166 0.781256 -3.46447 
-266.143 90.0149 276.176 111.338 48.5466 73.6184 -174.889 1.66875 88.5947 -65.1438 8.54034 4.05581 45.9637 -1.8137 2.81034 60.1636 -1.67757 6.21931 176.31 13.1328 89.7505 -37.6456 -9.68542 -1.20373 61.3413 0.696294 8.1784 32.9022 -0.645242 -0.00676964 0.447656 8.24035 -90.6525 10.3929 0.593024 -1.34742 -1.27859 0.533137 -1.3722 -23.8106 0.970497 -1.10694 -3.79798 0.970525 -1.10693 114.235 -55.5465 -64.6377 25.2185 4.30992 -9.18913 1.74328 -25.2472 -9.0077 -17.5748 -1.21997 2.8964 -76.3818 -48.2377 99.1387 -50.1045 -7.07825 -29.7781 9.08539 79.2266 0.0729858 -4.82832 0.0349529 -10.2738 2.27303 -0.518248 -8.43604 -19.4699 -0.177806 7.34021 
-260.492 91.2053 270.191 106.324 51.3367 78.3282 -177.178 16.0902 89.5681 -61.789 8.74628 3.24973 52.977 2.35456 4.12642 58.2508 -1.34358 8.09567 175.718 9.66261 90.5412 -34.9844 -5.56277 -0.0427542 65.9848 -0.0454026 10.8471 30.935 -0.410005 0.918129 0.377681 7.89272 -90.6263 11.0894 0.461274 -1.29114 -0.582149 0.403987 -1.31018 -23.114 0.827948 -1.09285 -3.10139 0.827945 -1.09285 112.986 -56.0588 -66.5346 25.0256 1.71665 -14.2692 1.47239 -23.3753 -12.4503 -17.1728 -1.21467 3.04938 -75.5129 -47.9743 100.498 -46.6745 -10.3674 -24.9978 7.79612 78.9044 0.0673747 -4.78654 0.0112253 -8.58723 2.75622 -1.66246 -9.93061 -23.9982 -1.49241 8.29813 
-255.147 91.8706 264.44 103.689 51.974 80.1087 -178.004 18.829 86.3566 -36.8985 6.01423 1.24225 52.9132 2.69133 5.24866 57.1638 -0.983483 10.7705 174.981 4.45663 90.7051 -31.8396 -4.09567 0.277797 69.0935 -0.780126 12.247 32.45 -0.685288 1.80327 0.415559 7.75639 -90.5852 11.3627 0.554033 -1.22095 -0.308723 0.499754 -1.24416 -22.8415 0.89535 -0.998033 -2.82887 0.895338 -0.998037 112.701 -55.4587 -66.8351 23.9535 -0.969986 -19.1865 0.420612 -21.6639 -18.0035 -16.2833 -0.818859 0.657775 -75.3486 -48.496 100.732 -43.2934 -12.9285 -18.2961 6.82821 75.0414 0.0564951 -1.39998 -0.147569 -10.631 2.61029 -2.19152 -8.55309 -24.1536 -2.15342 7.573 
-249.701 91.6825 258.721 102.668 49.5146 82.4605 -177.727 15.7583 87.5312 -8.46333 7.61855 0.249665 51.4034 0.15264 4.70232 49.867 -0.987664 11.6604 175.297 -1.10497 91.5014 -30.3863 -4.72997 -0.0167978 70.267 -1.7801 13.4881 37.0192 -1.29525 0.474964 0.620975 7.87161 -90.6698 11.1348 0.924916 -1.42317 -0.536668 0.861385 -1.4625 -23.0705 1.30985 -1.07944 -3.05783 1.30985 -1.07945 111.582 -55.0885 -68.3942 21.8185 -4.8253 -21.4611 -1.957 -18.2552 -28.9372 -14.336 -0.724258 0.698264 -74.8377 -48.3028 101.532 -43.2205 -15.817 -14.2675 8.24022 73.4292 0.0598525 -2.83066 -0.0623111 -11.4133 1.87195 -1.2943 -9.54535 -21.6146 -1.35416 9.89197 
-243.861 90.7451 252.299 102.019 46.395 84.2929 -177.95 17.4311 88.6619 -6.27237 8.09283 1.13039 55.4938 0.51764 2.15414 48.9272 -1.0408 11.0088 175.318 -4.70504 91.6171 -33.3562 -8.52467 -0.741666 68.0783 -2.00887 13.4399 49.5449 -3.04738 2.44258 0.929821 7.87886 -90.7307 11.1294 1.51135 -1.60475 -0.541735 1.43926 -1.6697 -23.0801 1.92374 -1.07632 -3.06746 1.92376 -1.07632 110.61 -54.1595 -69.6754 20.7909 -6.56865 -21.4639 -4.58424 -18.5917 -35.2561 -13.8723 -0.708242 0.752461 -73.474 -49.2484 103.571 -42.8463 -17.4223 -13.1517 9.2819 73.1999 0.068297 -6.26872 0.181045 -12.2634 1.038 -1.90131 -9.21159 -21.7442 -1.77859 7.91525 
-237.263 89.9237 244.978 101.958 46.1781 82.7644 -178.398 17.3452 86.8411 -15.1561 11.0116 1.21661 50.3733 -1.79945 6.73875 47.2516 -1.20441 8.19932 173.653 -5.80983 88.56 -39.1593 -10.8224 -1.60385 56.7133 1.80578 19.1537 64.7469 -3.05382 10.7076 0.890857 7.75208 -90.1518 11.3727 1.70194 -0.471781 -0.2973 1.6795 -0.546244 -22.8413 1.765 0.0616943 -2.82864 1.76501 0.0616876 113.213 -55.8893 -66.1746 19.841 -8.5665 -18.7734 -4.90464 -20.6119 -35.6237 -14.1118 -0.779541 1.24287 -74.9741 -46.4461 101.419 -43.4009 -17.8594 -12.3891 10.0068 71.8123 0.0701798 -6.56906 0.242573 -13.3684 -0.642747 -2.85057 -14.9232 -21.0151 -2.14172 8.6638 
-231.374 89.3907 238.29 103.962 47.9735 78.3645 -177.816 17.4382 83.6469 -27.8875 13.8428 0.461774 56.2296 0.298517 11.4267 42.914 -1.15328 4.00668 171.794 1.31781 83.3326 -55.8903 -11.2009 -2.11096 45.2191 4.81666 19.056 67.2418 -3.92802 8.50843 0.386147 7.86244 -89.6098 11.1475 0.950001 0.68564 -0.52328 0.979259 0.643152 -23.0588 0.700003 0.93944 -3.04611 0.700034 0.939446 113.859 -56.644 -65.3971 20.3627 -9.14849 -15.2557 -3.85995 -23.7923 -31.8206 -12.6519 -0.632619 0.639828 -75.6765 -46.4973 100.302 -44.2035 -18.1699 -17.501 12.0334 73.9344 0.0826689 -6.14183 0.165925 -12.1693 0.573115 -2.32462 -14.1453 -22.9513 -1.58518 7.83999 
-226.09 90.4133 232.103 106.517 49.1701 76.5938 -176.877 11.1646 83.9263 -30.1831 14.7314 0.774895 62.4972 4.14043 11.3209 40.978 -1.06924 3.38743 173.404 12.2695 84.9742 -67.3988 -6.8952 -2.57878 48.3761 3.18599 18.3589 53.5607 -3.19688 5.38328 0.096907 8.1115 -89.6002 10.649 0.377027 0.760413 -1.0221 0.410148 0.743073 -23.5556 0.131071 0.838569 -3.54289 0.131093 0.838569 114.293 -57.1918 -64.8901 21.1835 -6.82669 -13.7205 -1.87214 -29.4401 -23.6837 -9.3264 -0.530499 1.50972 -76.2601 -47.1237 99.3588 -47.2168 -15.5721 -27.7764 14.6533 75.4658 0.0875407 -6.13775 0.124304 -10.8983 -0.932655 -1.6228 -12.5434 -21.4357 -1.29005 8.53894 
-220.891 91.6437 225.915 106.953 54.1412 77.6032 -176.584 5.5942 85.7243 -28.9003 19.2785 2.29074 65.2635 6.59311 11.9659 41.6603 -1.10578 3.06055 173.198 20.1853 87.9066 -60.4663 -9.54257 -0.791212 51.8133 2.11846 15.4959 49.9854 -3.2091 1.10978 -0.418967 7.98826 -89.9093 10.8979 -0.792139 0.254037 -0.772817 -0.780187 0.288646 -23.31 -0.83186 0.00420437 -3.29731 -0.83186 0.00419681 113.95 -56.734 -65.2859 22.8309 -1.61245 -9.98208 0.392208 -33.625 -14.3122 -7.48421 -0.299288 -0.505422 -76.1245 -46.5596 99.5898 -46.5708 -7.37131 -33.6733 9.82369 68.1475 0.361188 -1.96363 -0.110725 -11.4575 -1.34691 -1.02751 -9.60866 -24.3192 -1.07669 7.07758 
